<svg width="272" height="52" viewBox="0 0 272 52" fill="none" xmlns="http://www.w3.org/2000/svg">
  <path fill-rule="evenodd" clip-rule="evenodd" d="M204.107 12.057c0-3.21-2.701-4.337-5.575-4.337-3.85 0-7.011 1.239-9.941 2.535l-2.012-5.915c3.276-1.464 7.816-3.098 13.218-3.098 8.447 0 12.527 4.168 12.527 10.026 0 10.252-14.366 13.124-16.78 20.954h17.297v6.534h-27.526c1.552-18.306 18.792-19.376 18.792-26.699z" fill="#0065A3"/>
  <path fill-rule="evenodd" clip-rule="evenodd" d="M224.967 23.717h3.448v-4c0-2.871.23-6.195.345-6.927l-8.563 11.096c.69-.056 3.448-.169 4.77-.169zm-13.505 1.296l18.964-23.658h5.632v22.362h5.632v6.196h-5.632v8.843h-7.643v-8.843h-16.953v-4.9zM258.618 23.201c-5.451 0-9.87-4.345-9.87-9.705s4.419-9.705 9.87-9.705 9.87 4.345 9.87 9.705-4.419 9.705-9.87 9.705zm0-22.183c-7.008 0-12.689 5.586-12.689 12.478 0 6.891 5.681 12.478 12.689 12.478s12.69-5.587 12.69-12.478c0-6.892-5.682-12.478-12.69-12.478z" fill="#0065A3"/>
  <path fill-rule="evenodd" clip-rule="evenodd" d="M260.028 7.95v4.159h4.23v2.773H257.208V7.949h2.82z" fill="#0065A3"/>
  <path fill-rule="evenodd" clip-rule="evenodd" d="M10.764 33.064c4.874 0 6.897-1.524 6.897-4.726 0-1.83-.726-3.1-1.919-3.812-1.296-.762-3.163-.966-5.29-.966H8.12v9.504h2.645zm-9.748-27.8h22.452l-1.763 5.641H8.12v7.014h2.334c3.682 0 6.948.457 9.49 1.779 3.007 1.524 4.822 4.269 4.822 8.538 0 5.997-3.682 10.52-14.157 10.52H1.016V5.265zM28.602 14.717h6.793v9.606c0 1.982-.052 3.913-.208 5.285h.156c.57-.965 1.763-2.998 3.163-4.98l7-9.911h6.845v24.04h-6.844V29.15c0-1.982.103-3.914.259-5.286h-.156c-.57.966-1.815 2.999-3.163 4.98l-7 9.911h-6.845v-24.04zM62.464 20.41h-7.312v-5.693H78.28l-1.815 5.692h-7v18.347h-7V20.41zM90.413 33.624c4.2 0 6.275-2.694 6.275-6.912 0-4.676-2.593-6.963-6.897-6.963-.882 0-1.608.05-2.385.305v13.061c.933.305 1.815.509 3.007.509zM80.405 15.683c2.697-.915 6.015-1.576 9.697-1.576 9.126 0 13.741 5.032 13.741 12.605 0 7.217-4.978 12.553-12.911 12.553-1.193 0-2.386-.152-3.526-.457v11.994h-7V15.683zM107.162 14.717h6.793v9.606c0 1.982-.052 3.913-.207 5.285h.155c.57-.965 1.763-2.998 3.163-4.98l7.001-9.911h6.844v24.04h-6.844V29.15c0-1.982.103-3.914.259-5.286h-.156a101.03 101.03 0 0 1-3.163 4.98l-7 9.911h-6.845v-24.04zM135.423 14.717h7.001v9.2h2.592c2.956 0 2.852-4.88 5.03-7.726.934-1.27 2.386-2.084 4.615-2.084.726 0 2.022.102 2.801.356v5.845a4.335 4.335 0 0 0-1.452-.254c-.778 0-1.297.254-1.712.762-1.244 1.525-1.451 4.625-3.267 5.743v.102c1.193.457 2.074 1.321 2.801 2.846l4.407 9.25h-7.571l-2.904-7.522c-.621-1.474-1.244-2.135-1.918-2.135h-3.422v9.657h-7.001v-24.04zM159.38 26.864c0-7.623 6.015-12.757 13.223-12.757 3.318 0 5.496.915 6.792 1.729v5.743c-1.763-1.322-3.63-2.033-6.015-2.033-4.304 0-6.844 3.201-6.844 7.267 0 4.524 2.592 6.963 6.533 6.963 2.178 0 3.838-.61 5.653-1.626l1.97 4.676c-2.023 1.422-5.185 2.44-8.608 2.44-8.141 0-12.704-5.337-12.704-12.402z" fill="white"/>
</svg>
