<svg width="272" height="52" version="1.1" id="потолок24_x5F_logo" xmlns="http://www.w3.org/2000/svg" x="0" y="0" viewBox="0 0 199.4 24.3" style="enable-background:new 0 0 199.4 24.3" xml:space="preserve"><style>.st0{fill:#0bbbef}</style><path class="st0" d="M108.6 11.2a9 9 0 0 0-1.6-2.9 6.8 6.8 0 0 0-2.6-1.8c-1-.4-2.2-.6-3.5-.6-1.3 0-2.5.2-3.5.6-1 .4-1.9 1-2.6 1.8-.7.8-1.3 1.8-1.6 2.9-.4 1.1-.6 2.4-.6 3.8s.2 2.7.6 3.8c.4 1.1.9 2.1 1.6 2.9s1.6 1.4 2.6 1.9c1 .4 2.2.6 3.5.6 1.3 0 2.5-.2 3.5-.6a6 6 0 0 0 2.6-1.9c.7-.8 1.3-1.8 1.6-2.9.4-1.1.6-2.4.6-3.8s-.2-2.6-.6-3.8zm-4.6 5.7a4 4 0 0 1-.8 2.6c-.5.6-1.3.9-2.3.9s-1.8-.3-2.3-.9a4 4 0 0 1-.8-2.6v-3.6c0-1.1.3-2 .8-2.6.5-.6 1.3-.9 2.3-.9s1.8.3 2.3.9c.5.6.8 1.5.8 2.6v3.6zm7.7-10.7h5V13h2.6l2.3-4.3c.5-.9 1-1.5 1.6-1.9.6-.4 1.4-.6 2.3-.6h2.1v3.9h-1.8l-1.5 2.8a3 3 0 0 1-.9 1.2l-1.1.5v.2c.4.1.7.2 1.1.5.3.2.6.6.9 1.1l2 3.6h1.8v3.9h-2.3c-.9 0-1.7-.2-2.3-.6-.6-.4-1.1-1-1.7-2l-2.5-4.5h-2.6v7h-5V6.2zM0 .4h18.7v23.5h-5.1V5H5.1v18.9H0zm29.6 23.9c-1.3 0-2.5-.2-3.5-.6a6 6 0 0 1-2.6-1.9 7.5 7.5 0 0 1-1.6-2.9c-.4-1.1-.6-2.4-.6-3.8s.2-2.7.6-3.8.9-2.1 1.6-2.9c.7-.8 1.6-1.4 2.6-1.8 1-.4 2.2-.6 3.5-.6 1.3 0 2.5.2 3.5.6 1 .4 1.9 1 2.6 1.8.7.8 1.3 1.8 1.6 2.9.4 1.1.6 2.4.6 3.8s-.2 2.7-.6 3.8a9 9 0 0 1-1.6 2.9c-.7.8-1.6 1.4-2.6 1.9-1 .4-2.2.6-3.5.6zm0-3.9c1 0 1.8-.3 2.3-.9a4 4 0 0 0 .8-2.6v-3.6a4 4 0 0 0-.8-2.6c-.5-.6-1.3-.9-2.3-.9s-1.8.3-2.3.9a4 4 0 0 0-.8 2.6v3.6c0 1.1.3 2 .8 2.6a3 3 0 0 0 2.3.9zM63 24.3c-1.3 0-2.5-.2-3.5-.6a6 6 0 0 1-2.6-1.9 7.5 7.5 0 0 1-1.6-2.9c-.4-1.1-.6-2.4-.6-3.8s.2-2.7.6-3.8a9 9 0 0 1 1.6-2.9c.7-.8 1.6-1.4 2.6-1.8 1-.4 2.2-.6 3.5-.6 1.3 0 2.5.2 3.5.6 1 .4 1.9 1 2.6 1.8.7.8 1.3 1.8 1.6 2.9.4 1.1.6 2.4.6 3.8s-.2 2.7-.6 3.8a9 9 0 0 1-1.6 2.9c-.7.8-1.6 1.4-2.6 1.9-1 .4-2.1.6-3.5.6zm0-3.9c1 0 1.8-.3 2.3-.9a4 4 0 0 0 .8-2.6v-3.6a4 4 0 0 0-.8-2.6c-.5-.6-1.3-.9-2.3-.9s-1.8.3-2.3.9a4 4 0 0 0-.8 2.6v3.6c0 1.1.3 2 .8 2.6.6.6 1.4.9 2.3.9zm9.4-.3h2.3l.6-1.1.4-1.6.3-2.3.1-3.2V6.2h14.1v17.7h-5V10.1h-4.3v2a44.4 44.4 0 0 1-.7 7 8.4 8.4 0 0 1-1.8 3.5c-.5.5-1.2.9-1.9 1.1-.7.2-1.6.3-2.6.3h-1.5v-3.9z"/><path d="M148.3 23.9h-15.1v-4.6l7.2-6.2 1.7-1.5 1.1-1.3c.3-.4.5-.9.6-1.3l.2-1.4v-.5l-.3-1.2-.7-.8-1-.5-1.1-.2c-.6 0-1.1.1-1.5.3l-1.1.7a7 7 0 0 0-.8 1l-.5 1.3-4.2-1.7c.3-.8.6-1.6 1.1-2.3a8.1 8.1 0 0 1 4.3-3.2 11.4 11.4 0 0 1 6.7 0 7 7 0 0 1 4.1 3.7 8.2 8.2 0 0 1 0 5.6c-.3.8-.8 1.6-1.4 2.3l-2 2.1-2.4 2-4.4 3.4h11.1l-1.6 4.3zm21.9-8.4h-3.4V.4h-6l-9.2 14.7v4.3H162v4.5h4.8v-4.5h1.9l1.5-3.9zm-8.2 0h-6.3l6-9.8h.3v9.8zm30.6 3.9h-19.2L180.2.3h19.2l-6.8 19.1zm-16.7-1.7h15.4l5.5-15.5h-15.4l-5.5 15.5zM192.5 9h-5.3V3.7h-1.8v7.1h6.5l.6-1.8z" style="fill:#005893"/><path class="st0" d="m38.3 6.2 1.4 3.9h4.1v13.8h5V10.1h4.1l1.5-3.9z"/></svg>
